<svg width="153" height="38" viewBox="0 0 153 38" fill="none" xmlns="http://www.w3.org/2000/svg">
<path d="M16.5 19.0001L31.5661 10.2527" stroke="#EB5B29" stroke-width="2" stroke-linejoin="bevel"/>
<path d="M31.5661 10.2527L16.5 19.0001V36.4974" stroke="#EB5B29" stroke-width="2" stroke-linejoin="bevel"/>
<path d="M16.4997 36.7041V19.0001L1.43359 10.2527" stroke="#EB5B29" stroke-width="2" stroke-linejoin="bevel"/>
<path d="M1.25391 10.148V27.852L16.5002 36.704L31.7465 27.852V10.148L16.5002 1.29346L1.25391 10.148Z" stroke="#EB5B29" stroke-width="2" stroke-miterlimit="10"/>
<path d="M61.224 28V10.6H57.984V23.872L51.024 10.6H46.56V28H49.8V14.728L56.76 28H61.224ZM72.2931 23.872C71.6931 25.216 70.4451 25.72 69.1011 25.72C67.2051 25.72 66.3171 24.592 66.3171 22.96V22.672C66.3171 22.552 66.3171 22.456 66.3411 22.336H75.7971C77.0691 17.92 74.7651 14.8 70.7811 14.8C65.7171 14.8 63.0771 18.88 63.0771 22.912C63.0771 25.816 64.9971 28.312 68.7411 28.312C71.4771 28.312 74.2611 26.944 75.4851 23.872H72.2931ZM70.4931 17.272C72.0531 17.272 73.1571 18.088 72.9651 20.104H66.8931C67.5411 17.68 69.2931 17.272 70.4931 17.272ZM83.5933 14.8C79.7293 14.8 77.1133 17.632 77.1133 21.568C77.1133 25.48 79.5853 28.312 83.4493 28.312C86.1373 28.312 88.8013 27.136 89.5693 23.608H86.4013C85.9453 25.144 84.7693 25.744 83.6173 25.744C81.7933 25.744 80.4973 24.232 80.4973 21.52C80.4973 18.832 81.8653 17.368 83.5933 17.368C84.8653 17.368 86.0173 18.256 86.2813 19.504H89.4493C88.9933 16.312 86.3053 14.8 83.5933 14.8ZM94.6191 10.6H91.3071V28H94.6191V21.28C94.6191 19.24 95.0991 17.464 97.2831 17.464C99.1551 17.464 99.5151 18.928 99.5151 20.584V28H102.827V19.864C102.827 16.672 101.459 14.8 98.3631 14.8C96.7551 14.8 95.3631 15.472 94.6191 16.792V10.6ZM111.628 17.392C113.452 17.392 114.052 18.712 114.052 20.368C114.052 23.248 112.54 25.72 110.164 25.72C108.364 25.72 107.764 24.4 107.764 22.744C107.764 19.864 109.276 17.392 111.628 17.392ZM111.988 14.8C106.852 14.8 104.428 19.12 104.428 22.888C104.428 26.464 106.54 28.312 109.828 28.312C114.964 28.312 117.388 23.992 117.388 20.224C117.388 16.648 115.276 14.8 111.988 14.8ZM135.028 28H138.34V19.864C138.34 16.816 137.212 14.8 133.972 14.8C132.028 14.8 130.756 15.472 129.724 16.912C129.22 15.976 128.236 14.8 126.052 14.8C124.492 14.8 123.196 15.52 122.452 16.792V15.088H119.14V28H122.452V21.28C122.452 19.312 122.812 17.464 125.02 17.464C126.964 17.464 127.084 19.072 127.084 20.488V28H130.396V21.28C130.396 19.312 130.756 17.464 132.964 17.464C134.908 17.464 135.028 19.072 135.028 20.488V28ZM151.252 18.976C150.796 16 148.252 14.752 145.564 14.752C142.78 14.752 140.284 16.288 140.284 18.592C140.284 20.944 141.892 21.952 144.316 22.456L146.236 22.864C147.364 23.128 148.348 23.488 148.348 24.448C148.348 25.384 147.46 25.912 146.02 25.912C144.292 25.912 143.428 24.976 143.236 23.728H140.044C140.356 26.68 142.756 28.312 145.924 28.312C148.852 28.312 151.516 26.728 151.516 24.136C151.516 21.472 149.332 20.824 146.764 20.248L145.036 19.864C143.812 19.6 143.308 19.072 143.308 18.376C143.308 17.584 144.172 17.128 145.396 17.128C146.932 17.128 147.892 17.896 148.156 18.976H151.252Z" fill="white"/>
</svg>
