<svg width="52" height="52" viewBox="0 0 52 52" fill="none" xmlns="http://www.w3.org/2000/svg">
<g clip-path="url(#clip0_1_480)">
<path d="M51.5733 26C51.5733 31.0581 50.0735 36.0025 47.2634 40.2081C44.4533 44.4137 40.4592 47.6915 35.7862 49.6271C31.1132 51.5628 25.9712 52.0692 21.0104 51.0824C16.0495 50.0957 11.4927 47.66 7.91618 44.0834C4.33962 40.5069 1.90396 35.9501 0.917186 30.9892C-0.0695841 26.0284 0.436862 20.8864 2.37248 16.2134C4.3081 11.5404 7.58595 7.54631 11.7915 4.73623C15.9971 1.92615 20.9416 0.42627 25.9996 0.42627C32.7822 0.42627 39.2869 3.12064 44.083 7.91666C48.879 12.7127 51.5733 19.2175 51.5733 26Z" stroke="white" stroke-linecap="round" stroke-linejoin="round"/>
<path d="M0.425781 26H51.5733" stroke="white" stroke-linecap="round" stroke-linejoin="round"/>
<path d="M25.9999 0.42627C31.8179 7.42922 35.1212 16.5164 35.3045 26C35.1212 35.4837 31.8179 44.5709 25.9999 51.5738C20.1819 44.5709 16.8743 35.4837 16.6953 26C16.8743 16.5164 20.1819 7.42922 25.9999 0.42627Z" stroke="white" stroke-linecap="round" stroke-linejoin="round"/>
</g>
<defs>
<clipPath id="clip0_1_480">
<rect width="52" height="52" fill="white"/>
</clipPath>
</defs>
</svg>
