<svg width="52" height="52" viewBox="0 0 52 52" fill="none" xmlns="http://www.w3.org/2000/svg">
<g clip-path="url(#clip0_1_495)">
<path d="M26 1C29.4478 1 32.7544 2.31696 35.1924 4.66117C37.6304 7.00537 39 10.1848 39 13.5V38.5C39 41.8152 37.6304 44.9946 35.1924 47.3388C32.7544 49.683 29.4478 51 26 51C22.5522 51 19.2456 49.683 16.8076 47.3388C14.3696 44.9946 13 41.8152 13 38.5V13.5C13 10.1848 14.3696 7.00537 16.8076 4.66117C19.2456 2.31696 22.5522 1 26 1V1Z" stroke="white" stroke-miterlimit="10"/>
<path d="M51 26C51 29.3329 49.7054 32.5293 47.4009 34.886C45.0964 37.2427 41.9709 38.5667 38.7119 38.5667H13.2881C10.0291 38.5667 6.90358 37.2427 4.59911 34.886C2.29464 32.5293 1 29.3329 1 26V26C1 22.6671 2.29464 19.4707 4.59911 17.114C6.90358 14.7573 10.0291 13.4333 13.2881 13.4333H38.7119C41.9709 13.4333 45.0964 14.7573 47.4009 17.114C49.7054 19.4707 51 22.6671 51 26V26Z" stroke="white"/>
</g>
<defs>
<clipPath id="clip0_1_495">
<rect width="52" height="52" fill="white"/>
</clipPath>
</defs>
</svg>
