<svg width="50" height="30" viewBox="0 0 50 30" fill="none" xmlns="http://www.w3.org/2000/svg">
<g style="mix-blend-mode:overlay">
<path fill-rule="evenodd" clip-rule="evenodd" d="M34.1406 18.812L34.1627 18.9614C34.3571 20.2731 34.7782 21.0133 35.2767 21.4392C35.7758 21.8658 36.5005 22.104 37.5655 22.104C38.5812 22.104 39.2339 21.8535 39.609 21.5602C39.965 21.2819 40.1295 20.9245 40.1295 20.512C40.1295 20.1425 40.0561 19.9081 39.962 19.7492C39.8701 19.5941 39.717 19.4402 39.4365 19.2985C38.8248 18.9893 37.7623 18.812 36.0535 18.812H34.1406ZM33.9735 18.108H25.1142L25.1922 19.1805C25.4252 22.3843 26.6915 24.9937 28.881 26.7888C31.0553 28.5714 34.0374 29.468 37.5655 29.468C40.6009 29.468 43.5617 28.7637 45.797 27.2916C48.0651 25.798 49.5815 23.506 49.5815 20.476C49.5815 17.6936 48.3326 15.5428 46.3698 14.2766C47.8064 12.9331 48.7895 10.8248 48.7895 8.45196C48.7895 5.87781 47.6095 3.7913 45.6344 2.38194C43.6897 0.994316 41.0192 0.287964 37.9975 0.287964C34.4593 0.287964 31.448 1.08215 29.2425 2.76012C27.0096 4.45898 25.7143 6.97978 25.4802 10.179L25.4017 11.252H33.9735V18.108ZM34.4109 11.016H36.1615C37.4721 11.016 38.3052 10.7272 38.7852 10.3687C39.2318 10.0352 39.4455 9.59122 39.4455 9.02797C39.4455 8.56825 39.2558 8.25955 38.9326 8.03125C38.5756 7.77912 38.028 7.61596 37.3855 7.61596C36.6037 7.61596 35.9078 7.83044 35.4061 8.23808C34.9253 8.62871 34.5322 9.26866 34.4591 10.3212L34.4109 11.016ZM45.5331 14.938C45.18 14.7366 44.8029 14.5662 44.4055 14.428C44.7633 14.2596 45.1101 14.0366 45.4366 13.7658C46.786 12.647 47.7895 10.7128 47.7895 8.45196C47.7895 3.98796 43.7575 1.28796 37.9975 1.28796C31.5888 1.28796 27.4157 4.0028 26.5915 9.25196C26.5407 9.57567 26.5026 9.90902 26.4775 10.252H33.4615C33.6415 7.65997 35.4775 6.61596 37.3855 6.61596C38.9695 6.61596 40.4455 7.40797 40.4455 9.02797C40.4455 10.756 39.0415 12.016 36.1615 12.016H34.9735V17.812H36.0535C39.5095 17.812 41.1295 18.496 41.1295 20.512C41.1295 21.952 39.9055 23.104 37.5655 23.104C35.1535 23.104 33.6055 22.024 33.1735 19.108H26.1895C26.2144 19.4497 26.2517 19.7831 26.3014 20.108C27.1145 25.4302 31.2208 28.468 37.5655 28.468C43.3615 28.468 48.5815 25.768 48.5815 20.476C48.5815 17.9055 47.3876 15.9955 45.5331 14.938ZM22.1004 25.4223C19.9887 28.0506 16.8568 29.468 12.8743 29.468C8.90864 29.468 5.77782 28.0498 3.66248 25.4232C1.57283 22.8285 0.570312 19.1747 0.570312 14.86C0.570312 10.5453 1.57284 6.89955 3.66365 4.31328C5.78 1.69542 8.91096 0.287964 12.8743 0.287964C16.8545 0.287964 19.9865 1.69465 22.0992 4.31418C24.1857 6.90124 25.1783 10.5473 25.1783 14.86C25.1783 19.1727 24.1857 22.8268 22.1004 25.4223ZM11.8406 21.8289C12.132 22.0113 12.4694 22.104 12.8743 22.104C13.2911 22.104 13.6365 22.0099 13.9329 21.8263C14.2319 21.6411 14.5385 21.3289 14.8185 20.8054C15.3949 19.7275 15.7983 17.8651 15.7983 14.86C15.7983 11.8548 15.3949 9.99245 14.8185 8.91451C14.5385 8.39101 14.2319 8.07884 13.9329 7.8936C13.6365 7.71003 13.2911 7.61596 12.8743 7.61596C12.4694 7.61596 12.132 7.70864 11.8406 7.89106C11.546 8.07553 11.2416 8.38755 10.9629 8.91212C10.3896 9.99138 9.98631 11.8553 9.98631 14.86C9.98631 17.8646 10.3896 19.7285 10.9629 20.8078C11.2416 21.3324 11.546 21.6444 11.8406 21.8289ZM24.1783 14.86C24.1783 23.212 20.3263 28.468 12.8743 28.468C5.45831 28.468 1.57031 23.212 1.57031 14.86C1.57031 6.50797 5.45831 1.28796 12.8743 1.28796C20.3263 1.28796 24.1783 6.50797 24.1783 14.86ZM8.98631 14.86C8.98631 20.98 10.6063 23.104 12.8743 23.104C15.1783 23.104 16.7983 20.98 16.7983 14.86C16.7983 8.73996 15.1783 6.61596 12.8743 6.61596C10.6063 6.61596 8.98631 8.73996 8.98631 14.86Z" fill="white"/>
</g>
</svg>
