<svg width="41" height="30" viewBox="0 0 41 30" fill="none" xmlns="http://www.w3.org/2000/svg">
<g style="mix-blend-mode:overlay">
<path fill-rule="evenodd" clip-rule="evenodd" d="M40.1557 29H30.9557V12.008H25.1957V4.77513L26.1722 4.75224C28.4257 4.69942 29.7852 4.39863 30.6864 3.89714C31.5388 3.42285 32.091 2.70652 32.5787 1.51985L32.8335 0.899965H40.1557V29ZM33.5037 1.89996H39.1557V28H31.9557V11.008H26.1957V5.75196C30.8037 5.64396 32.4237 4.52797 33.5037 1.89996ZM22.1785 25.4223C20.0668 28.0506 16.9349 29.468 12.9524 29.468C8.98676 29.468 5.85595 28.0498 3.7406 25.4232C1.65096 22.8285 0.648438 19.1747 0.648438 14.86C0.648438 10.5453 1.65096 6.89955 3.74178 4.31328C5.85813 1.69542 8.98908 0.287964 12.9524 0.287964C16.9326 0.287964 20.0646 1.69465 22.1773 4.31418C24.2638 6.90124 25.2564 10.5473 25.2564 14.86C25.2564 19.1727 24.2638 22.8268 22.1785 25.4223ZM11.9188 21.8289C12.2101 22.0113 12.5476 22.104 12.9524 22.104C13.3692 22.104 13.7146 22.0099 14.011 21.8263C14.3101 21.6411 14.6167 21.3289 14.8966 20.8054C15.473 19.7275 15.8764 17.8651 15.8764 14.86C15.8764 11.8548 15.473 9.99245 14.8966 8.91451C14.6167 8.39101 14.3101 8.07884 14.011 7.8936C13.7146 7.71003 13.3692 7.61596 12.9524 7.61596C12.5476 7.61596 12.2101 7.70864 11.9188 7.89106C11.6241 8.07553 11.3197 8.38755 11.0411 8.91212C10.4677 9.99138 10.0644 11.8553 10.0644 14.86C10.0644 17.8646 10.4677 19.7285 11.0411 20.8078C11.3197 21.3324 11.6241 21.6444 11.9188 21.8289ZM24.2564 14.86C24.2564 23.212 20.4044 28.468 12.9524 28.468C5.53644 28.468 1.64844 23.212 1.64844 14.86C1.64844 6.50797 5.53644 1.28796 12.9524 1.28796C20.4044 1.28796 24.2564 6.50797 24.2564 14.86ZM9.06444 14.86C9.06444 20.98 10.6844 23.104 12.9524 23.104C15.2564 23.104 16.8764 20.98 16.8764 14.86C16.8764 8.73996 15.2564 6.61596 12.9524 6.61596C10.6844 6.61596 9.06444 8.73996 9.06444 14.86Z" fill="white"/>
</g>
</svg>
