<svg width="49" height="30" viewBox="0 0 49 30" fill="none" xmlns="http://www.w3.org/2000/svg">
<g style="mix-blend-mode:overlay">
<path fill-rule="evenodd" clip-rule="evenodd" d="M25.7358 12.332L25.7528 11.3152C25.8102 7.88974 26.8898 5.08823 29.0186 3.15344C31.1354 1.22948 34.1523 0.287964 37.8407 0.287964C40.6763 0.287964 43.3638 0.876228 45.3735 2.24308C47.432 3.64306 48.7047 5.81476 48.7047 8.73996C48.7047 11.6168 47.4672 14.0796 45.3981 16.3251C43.9482 17.8985 42.0665 19.3919 39.8607 20.88H48.5967V29H25.7887V21.7973L26.2074 21.4982C26.7575 21.1053 27.3968 20.6639 28.0929 20.1832C30.0141 18.8567 32.3676 17.2316 34.4699 15.5047C35.8963 14.333 37.1592 13.1516 38.0574 12.032C38.9794 10.8827 39.3967 9.94594 39.3967 9.24396C39.3967 8.64029 39.1669 8.28364 38.8452 8.04668C38.4845 7.7811 37.9299 7.61596 37.2647 7.61596C36.4116 7.61596 35.798 7.89899 35.3759 8.40958C34.9315 8.94726 34.5927 9.86768 34.5927 11.332V12.332H25.7358ZM36.4367 21.88C36.9873 21.5444 37.5218 21.2114 38.0391 20.88C44.0151 17.0517 47.7047 13.4447 47.7047 8.73996C47.7047 3.55596 43.2767 1.28796 37.8407 1.28796C31.1584 1.28796 27.2852 4.51667 26.8018 10.332C26.7748 10.6572 26.7584 10.9906 26.7527 11.332H33.5927C33.5927 8.12796 35.0687 6.61596 37.2647 6.61596C38.8847 6.61596 40.3967 7.40796 40.3967 9.24396C40.3967 12.9034 33.1682 17.8945 28.6275 21.0297C27.9419 21.5031 27.3176 21.9342 26.7887 22.312V28H47.5967V21.88H36.4367ZM22.3035 25.4223C20.1918 28.0506 17.0599 29.468 13.0774 29.468C9.11176 29.468 5.98095 28.0498 3.8656 25.4232C1.77596 22.8285 0.773438 19.1747 0.773438 14.86C0.773438 10.5453 1.77596 6.89955 3.86678 4.31328C5.98313 1.69542 9.11408 0.287964 13.0774 0.287964C17.0576 0.287964 20.1896 1.69465 22.3023 4.31418C24.3888 6.90124 25.3814 10.5473 25.3814 14.86C25.3814 19.1727 24.3888 22.8268 22.3035 25.4223ZM12.0438 21.8289C12.3351 22.0113 12.6726 22.104 13.0774 22.104C13.4942 22.104 13.8396 22.0099 14.136 21.8263C14.4351 21.6411 14.7417 21.3289 15.0216 20.8054C15.598 19.7275 16.0014 17.8651 16.0014 14.86C16.0014 11.8548 15.598 9.99245 15.0216 8.91451C14.7417 8.39101 14.4351 8.07884 14.136 7.8936C13.8396 7.71003 13.4942 7.61596 13.0774 7.61596C12.6726 7.61596 12.3351 7.70864 12.0438 7.89106C11.7491 8.07553 11.4447 8.38755 11.1661 8.91212C10.5927 9.99138 10.1894 11.8553 10.1894 14.86C10.1894 17.8646 10.5927 19.7285 11.1661 20.8078C11.4447 21.3324 11.7491 21.6444 12.0438 21.8289ZM24.3814 14.86C24.3814 23.212 20.5294 28.468 13.0774 28.468C5.66144 28.468 1.77344 23.212 1.77344 14.86C1.77344 6.50797 5.66144 1.28796 13.0774 1.28796C20.5294 1.28796 24.3814 6.50797 24.3814 14.86ZM9.18944 14.86C9.18944 20.98 10.8094 23.104 13.0774 23.104C15.3814 23.104 17.0014 20.98 17.0014 14.86C17.0014 8.73996 15.3814 6.61596 13.0774 6.61596C10.8094 6.61596 9.18944 8.73996 9.18944 14.86Z" fill="white"/>
</g>
</svg>
