<svg width="132" height="134" viewBox="0 0 132 134" fill="none" xmlns="http://www.w3.org/2000/svg">
<path fill-rule="evenodd" clip-rule="evenodd" d="M130.331 51.0244L129.867 49.2998L131.494 48.8502L131.959 50.5959L130.331 51.0244ZM121.334 48.2505L122.173 47.9407C121.272 47.7849 120.72 47.0954 120.464 46.4086C120.017 44.8385 120.748 43.0371 122.87 42.2537C124.954 41.4836 126.93 42.2491 127.407 43.8436C127.719 44.6776 127.614 45.5258 127.118 46.1139L130.275 44.9477L130.907 46.6403L121.966 49.9434L121.334 48.2505ZM124.674 47.0864C126.006 46.5944 126.604 45.6759 126.255 44.7435C125.926 43.8604 124.816 43.5583 123.521 44.0367C122.227 44.5152 121.597 45.4596 121.927 46.3427C122.464 47.2748 123.305 47.5922 124.674 47.0864ZM122.531 37.6077C122.092 36.8326 121.514 36.4802 120.508 37.1292L117.125 38.9411L116.233 37.3681L122.399 33.9114L123.278 35.4615L122.2 36.0656C123.169 35.9883 123.777 36.3684 124.33 37.0864C124.242 37.1892 124.308 37.3324 124.355 37.4414L122.865 38.2766C122.77 38.0295 122.66 37.8356 122.531 37.6077ZM114.506 34.7095L115.266 34.1695C114.441 34.2578 113.679 33.8502 113.188 33.1368C112.18 31.7633 112.629 30.6088 114.041 29.6051L117.681 27.0193L118.736 28.4886L115.418 30.8462C114.647 31.3936 114.11 31.952 114.699 32.7718C115.402 33.7513 116.358 33.3939 117.268 32.7475L120.266 30.6181L121.321 32.0874L115.609 36.1788L114.506 34.7095ZM109.064 28.0059C107.658 26.7051 107.349 24.5927 109.158 22.9139C110.975 21.4296 113.073 21.6772 114.294 22.9783C115.515 24.2792 115.824 26.3913 114.006 28.0792C112.198 29.7581 110.1 29.4374 109.064 28.0059ZM113.255 23.9428C112.573 23.2157 111.602 23.2438 110.415 24.253C109.328 25.3907 109.236 26.3144 109.918 27.0415C110.6 27.7685 111.662 27.749 112.749 26.74C113.836 25.7951 113.938 24.6696 113.255 23.9428ZM103.941 22.9947L102.487 21.9142L104.92 18.6749C105.463 17.9514 105.785 17.1944 104.963 16.5837C104.003 15.8712 103.21 16.4902 102.541 17.3814L100.337 20.3169L98.8818 19.2364L103.117 13.6454L104.74 14.6767L104.013 15.4211C104.773 15.0871 105.605 15.2477 106.311 15.7723C107.739 16.7824 107.657 18.0466 106.61 19.441L103.941 22.9947ZM100.234 10.9502L101.112 9.52066L102.855 10.4613L101.784 11.8911L100.234 10.9502ZM97.692 18.5595L96.142 17.6186L99.8297 11.6094L101.379 12.5501L97.692 18.5595ZM92.1441 15.6826C90.5365 14.902 89.5343 13.0395 90.5738 10.8289C91.6645 8.71369 93.7852 8.28238 95.3929 9.06293C97.0007 9.84326 98.0482 11.8707 96.9577 13.928C95.8727 16.1386 93.752 16.6216 92.1441 15.6826ZM94.9807 10.3326C93.8713 9.89655 92.8808 10.3038 92.2288 11.6325C91.5767 12.9612 91.869 13.9766 92.7675 14.4126C93.6659 14.849 94.6504 14.4533 95.3024 13.2124C96.0643 11.796 95.6682 10.7689 94.9807 10.3326ZM84.9831 12.7863C83.0002 12.1245 82.334 10.4804 82.9119 8.64446L84.6954 9.23993C84.3184 10.4804 84.6748 11.0687 85.473 11.3351C86.2587 11.5975 86.9373 11.3546 87.5346 10.1268L89.3946 4.07365L91.3545 4.66888L89.135 10.7221C88.4947 12.6201 86.966 13.4484 84.9831 12.7863ZM84.5834 128.399L82.8292 128.863L81.0089 122.061L82.7631 121.596L84.5834 128.399ZM77.8592 130.049C76.3939 130.298 74.802 129.732 74.2615 128.058L75.9731 127.768C76.231 128.414 76.9352 128.786 77.6224 128.669C78.5562 128.631 79.1604 127.599 78.9126 126.154C78.6626 124.748 77.8231 124.003 76.8376 124.17C76.2152 124.276 75.6349 124.841 75.5301 125.573L73.8185 125.864C73.9082 123.897 75.2393 123.021 76.6917 122.775C78.7796 122.421 80.3762 123.716 80.7367 125.818C81.0995 127.933 79.9469 129.768 77.8592 130.049ZM75.8284 9.16761C74.5791 8.9811 73.6926 7.80324 73.8957 6.49169C74.0871 5.18917 75.2821 4.41004 76.5312 4.50853C77.8974 4.71265 78.7712 5.88837 78.5799 7.15662C78.3768 8.50244 77.1945 9.3715 75.8284 9.16761ZM71.3923 131.419L73.2018 131.277L73.3341 132.947L71.5243 133.088L71.3923 131.419ZM70.7757 123.632L72.5852 123.49L73.1411 130.508L71.3313 130.746L70.7757 123.632ZM70.0923 4.02678L68.6191 4.00323L68.5602 7.64028C68.5485 8.38539 68.7961 8.50767 69.4407 8.5179L69.993 8.52694L69.9722 9.82208L68.6435 9.94841C67.1265 9.77474 66.718 9.27277 66.7407 7.87271L66.8038 3.9742L65.8277 3.95803L66.0071 2.71522L66.8239 2.73116L66.8548 0.821045L68.67 0.850069L68.6392 2.76019L70.1404 2.78374L70.0923 4.02678ZM67.5772 124.645L67.6286 121.466L69.4438 121.495L69.2929 130.823L67.4776 130.794L67.6193 129.891C67.1 130.552 66.3307 130.932 65.4364 130.918C63.7264 131.017 62.3818 129.403 62.4177 127.192C62.4541 125.06 63.8849 123.526 65.6052 123.553C66.5118 123.564 67.1294 123.852 67.5772 124.645ZM65.9803 125.1C65.0331 125.143 64.3475 125.836 64.3253 127.21C64.3031 128.584 64.9589 129.523 65.9059 129.538C66.9057 129.554 67.5776 128.688 67.6004 127.275C67.6238 125.823 66.9799 124.962 65.9803 125.1ZM62.4491 10.1411C60.7185 10.4932 59.3338 9.50472 59.03 7.91482L60.7737 7.77136C60.935 8.44082 61.4492 8.91044 62.3931 8.85644C63.2444 8.76817 63.641 8.44153 63.5986 7.9329C63.5553 7.46709 63.0016 7.25987 62.3735 7.16733L61.3062 7.03173C59.9593 6.86686 59.0353 6.39153 58.9291 5.11352C58.825 3.86191 60.1191 2.9153 61.6399 2.79016C63.1083 2.86843 64.5545 3.23314 64.9379 4.82946L63.2465 4.96864C63.0537 4.39363 62.4945 4.01964 61.6554 4.21496C60.9869 4.14359 60.5355 4.43002 60.5714 4.86039C60.6027 5.23865 60.902 5.57338 61.5825 5.59123L62.5438 5.72231C63.9725 5.91977 65.1948 6.17385 65.3151 7.62101C65.4323 9.02939 64.0486 10.0095 62.4491 10.1411ZM61.6399 125.48C61.3947 127.124 59.4737 127.343 56.6689 127.247L56.6515 127.363C56.6354 128.437 57.0208 128.899 57.7494 129.006C58.439 129.108 59.0637 128.843 59.2185 128.073L60.8969 128.32C60.618 129.671 59.2797 130.515 57.4709 130.248C55.8186 130.004 54.5604 129.078 54.9099 126.736C54.9407 126.529 55.1077 125.588 55.2005 124.967C55.3646 123.867 55.3921 123.236 55.3359 122.632L56.9885 122.876C57.0076 123.104 56.9892 123.405 57.1784 123.949C57.5917 123.111 58.3667 122.908 59.4206 123.063C60.7608 123.261 61.8291 124.212 61.6399 125.48ZM56.8639 125.582L56.7866 126.1C58.8344 126.191 59.6629 126.075 59.7787 125.298C59.854 124.794 59.5254 124.322 58.7057 124.201C57.5738 124.034 57.0165 124.56 56.8639 125.582ZM55.0907 9.85563C55.6442 9.66911 56.1441 9.36412 56.3773 8.68681L58.2053 8.3045C58.0486 9.4067 57.2856 10.9405 55.3933 11.1524C53.1662 11.6182 51.5167 10.2386 51.0969 8.25431C50.6637 6.20573 51.7702 4.38316 53.817 3.9547C55.954 3.50768 57.6293 4.8818 58.0795 7.32791L52.9688 8.39728C53.3209 9.6201 54.2411 9.96292 55.0907 9.85563ZM56.2288 6.48883C55.7349 5.33168 55.0352 5.09449 54.0777 5.25055C53.4085 5.39067 52.6325 6.00875 52.7373 7.2506L56.2288 6.48883ZM50.137 12.3258C48.6105 12.8235 48.1433 12.4428 47.7113 11.1106L46.5084 7.4L45.5569 7.70523L45.1735 6.52214L46.125 6.35846L45.5356 4.39933L47.2631 3.92234L47.8525 5.66307L49.2546 5.21344L49.638 6.39629L48.2359 6.84592L49.3582 10.3074C49.5802 11.157 49.8624 11.053 50.4759 10.8562L51.0017 10.6876L51.4014 11.9201L50.137 12.3258ZM45.1859 14.0908L43.5371 10.3947C43.169 9.77712 42.6631 8.91948 41.725 9.33343C40.6307 9.81637 40.785 10.8077 41.2385 11.8243L42.7327 15.1735L41.073 15.9057L38.2021 9.4707L39.8619 8.7382L40.2408 9.58751C40.32 8.76508 40.8682 8.15462 41.6738 7.76684C43.2252 7.08216 44.327 7.7126 45.0367 9.30345L46.8457 13.4075L45.1859 14.0908ZM37.3186 18.2902C35.793 19.2197 33.651 19.0984 32.3589 17.001C31.06 14.8927 31.9238 12.9393 33.4491 12.0098C34.9745 11.0801 37.2631 11.2017 38.4155 13.31C39.7076 15.4071 38.8439 17.3605 37.3186 18.2902ZM36.8452 14.2668C36.0688 13.0064 35.0438 12.695 34.1913 13.2146C33.3391 13.7339 33.1525 14.8135 33.9292 16.0442C34.7058 17.3046 35.7239 17.6048 36.5761 17.0855C37.4286 16.5659 37.6219 15.5275 36.8452 14.2668ZM32.351 18.57C33.2379 20.1306 32.5064 21.5419 31.3597 22.4623C29.7115 23.7855 27.6821 23.4306 26.3352 21.7707C24.9799 20.1009 25.1208 18.0035 26.7691 16.6803C27.9259 15.9293 29.5931 15.4727 30.934 16.6708L29.5354 17.7557C28.9929 17.3165 28.1959 17.3343 27.6532 17.7699C26.9162 18.4772 27.0303 19.4512 27.762 20.5917C28.6958 21.7422 29.7693 22.1433 30.5474 21.3154C31.0387 20.9209 31.3339 20.3685 30.9995 19.4557L32.351 18.57ZM19.0929 113.079L17.8907 111.726L20.4341 109.491C19.6217 109.663 18.8405 109.337 18.2567 108.68C17.1329 107.415 17.4051 106.181 18.7164 105.028L22.0582 102.114L23.2606 103.444L20.2145 106.121C19.5342 106.719 19.0635 107.395 19.743 108.16C20.5359 109.052 21.4396 108.607 22.3421 107.87L25.0378 105.649L26.24 106.797L19.0929 113.079ZM22.2206 25.6956L24.9563 28.1884L23.7299 29.5197L18.5107 24.7643L19.7193 23.452L20.6312 24.283C20.2568 23.3916 20.4312 22.6985 20.9909 22.0907C21.071 22.0039 21.1873 21.8971 21.277 21.819L22.5382 22.9681C22.3313 23.1346 22.1802 23.2985 22.0025 23.4915C21.3982 24.1476 21.2409 24.8028 22.2206 25.6956ZM21.1136 33.0904C20.0521 34.5225 18.0211 35.2117 16.0305 33.752C14.0294 32.2844 14.0909 30.1511 15.1526 28.7189C16.2144 27.2867 18.2452 26.5975 20.2463 28.0652C22.2369 29.5249 22.1754 31.6582 21.1136 33.0904ZM19.1534 29.6229C17.957 28.6621 16.8894 28.7572 16.3479 29.5575C15.7028 30.3578 15.9271 31.4001 17.1236 32.2775C18.3201 33.1551 19.3768 33.0523 19.9703 32.2518C20.5635 31.6142 20.3499 30.4168 19.1534 29.6229ZM16.0807 36.4048C16.7045 36.7691 16.9559 36.6277 17.2824 36.0748L17.562 35.6009L18.7087 36.2568L18.0124 37.5356C17.1865 38.7953 16.6022 38.8031 15.3885 38.0942L12.2146 36.12L11.5018 36.9775L10.424 36.348L10.9304 35.6062L9.27419 34.5233L10.1934 32.9664L11.8496 33.9337L12.5956 32.67L13.7981 33.2995L12.9272 34.563L16.0807 36.4048ZM12.6691 38.6252C12.6755 38.712 13.5388 39.1314 14.1136 39.3914C15.1316 39.8523 15.7336 40.0528 16.3323 40.1656L15.6404 41.8131C15.415 41.6337 15.1287 41.533 14.7891 41.4224C15.2471 42.1904 15.2292 42.9873 14.7879 43.952C14.2267 45.1789 13.0123 45.9376 11.8386 45.4063C10.3824 44.7181 10.6366 42.8208 11.5044 40.1658L11.3966 40.1171C10.4027 39.6672 9.81023 40.0459 9.50501 40.8543C9.21631 41.3442 9.29978 42.0146 10.0021 42.3755L9.29907 43.9121C8.0897 43.2065 7.62423 41.7595 8.38176 40.104C9.07375 38.7798 10.368 37.6443 12.6691 38.6252ZM12.5287 43.6773C12.9956 43.8885 13.5424 43.7046 13.8856 42.9543C14.3597 42.0724 14.005 41.2402 13.059 40.812L12.5801 40.5952C11.9271 42.528 11.8101 43.564 12.5287 43.6773ZM10.434 45.8921L8.90966 50.8612C10.0982 51.1124 10.9024 50.5084 11.1559 49.6822C11.321 49.144 11.2935 48.5612 10.9947 48.0311L11.3547 46.2537C12.2503 46.9222 13.0707 48.2383 12.5062 50.0783C11.8419 52.2436 9.8308 53.0152 7.88016 52.4233C5.86662 51.8123 4.79527 49.9686 5.4057 47.9783C6.04315 45.9007 8.06195 45.104 10.434 45.8921ZM6.67295 48.3765C6.47322 49.0274 6.61889 49.9883 7.72182 50.5441L8.70084 47.2817C7.5441 46.9717 6.89564 47.6507 6.67295 48.3765ZM5.88672 53.4082C5.71856 54.3719 5.93049 54.9217 7.23553 55.1698L10.8789 55.8629L10.5381 57.6362L3.58686 56.3142L3.92293 54.5665L5.13732 54.7975C4.50537 54.2344 4.13103 53.5538 4.28674 52.7442C4.30899 52.8232 4.53886 52.4768 4.38673 52.3635L6.06635 52.6831C5.97809 52.9326 5.93599 53.151 5.88672 53.4082ZM5.68938 58.1082L5.67981 59.8289C4.84813 59.9146 4.30971 60.4991 4.25039 61.3591C4.17002 62.1823 4.90602 62.9395 6.37396 63.0639C7.85481 63.1893 8.74103 62.5555 8.8257 61.5647C8.91372 60.9904 8.60636 60.2724 7.78879 59.9536L8.09568 58.2331C9.82721 59.0039 10.3455 60.3147 10.2204 61.7747C10.0406 63.8735 8.37889 65.0851 6.24264 64.9041C4.259 64.7219 2.77599 63.17 2.84823 61.0713C2.97428 59.5982 3.92508 58.2081 5.68938 58.1082ZM4.00186 68.6951L4.18724 70.1579L7.74335 69.9338C8.46547 69.8896 8.59464 69.6327 8.55493 68.9927L8.52073 68.4441L9.82099 68.3642L9.90279 69.6833C10.0033 71.303 9.52271 71.6341 8.11768 71.7202L4.20446 71.9603L4.26593 72.953L3.0183 73.0297L2.95682 72.0369L1.03944 72.1546L0.927734 70.3521L2.84488 70.4422L2.75422 68.7717L4.00186 68.6951ZM9.9968 72.4073L10.4254 74.4092L8.33152 76.346L10.8426 77.6124L11.1366 79.4204L7.27285 77.4289L4.12696 80.4015L3.80381 78.4124L5.63341 76.6339L3.32518 75.6666L3.0293 73.6463L6.76336 75.5512L9.9968 72.4073ZM8.18944 80.1194L9.64135 85.1087C10.7744 84.6735 11.1165 83.7307 10.8749 82.9012C10.7177 82.5086 10.3745 82.059 9.67843 81.7067L9.1589 79.9222C10.2759 79.9957 11.6858 80.6521 12.2235 82.4996C12.8561 84.6738 11.5953 86.622 9.63681 86.976C7.61514 87.5579 5.70565 86.5958 5.12416 84.5977C4.51709 82.5115 5.80898 80.7477 8.18944 80.1194ZM6.40386 84.2427C6.59402 84.8962 7.24343 85.6218 8.43366 85.4291L7.50104 82.2246C6.36224 82.6894 6.19193 83.514 6.40386 84.2427ZM9.27491 88.5276L13.358 86.7431L14.0882 88.3962L10.3666 90.0228C9.53563 90.3861 8.92329 90.8866 9.29309 91.8211C9.77459 92.9112 10.7718 92.7613 11.7955 92.3138L15.1679 90.84L15.8982 92.4932L9.41843 95.3252L8.68816 93.672L9.54329 93.3903C8.71663 93.2164 8.07248 92.669 7.71799 91.9177C7.03533 90.3209 7.67302 89.2275 9.27491 88.5276ZM15.1376 97.3621L18.0184 101.67C18.9632 100.991 18.9982 99.9081 18.5128 99.192C18.1966 98.7253 17.724 98.3793 17.0054 98.4193L15.9611 97.0778C17.0471 96.6082 18.5915 96.8035 19.6727 98.3984C20.945 100.275 20.2805 102.315 18.5896 103.449C16.8442 104.619 14.7295 104.285 13.5603 102.56C12.3395 100.759 12.9891 98.6977 15.1376 97.3621ZM14.6695 101.832C15.0519 102.396 15.8937 102.889 16.9674 102.473L15.0919 99.576C14.1212 100.274 14.2427 101.203 14.6695 101.832ZM22.1216 112.763L22.9669 111.663L24.0523 112.654L26.5259 109.975C27.0153 109.445 26.9291 109.17 26.4543 108.737L26.0472 108.365L26.9282 107.411L27.907 108.305C29.1084 109.402 28.9934 109.972 28.0412 111.003L25.4756 113.875L26.1259 114.548L25.2806 115.464L24.5441 114.791L23.4065 116.198L21.9077 114.977L23.2068 113.57L22.1216 112.763ZM32.6658 112.365L34.0744 113.331L31.8085 116.688C31.3026 117.438 31.0191 118.21 31.8711 118.779C32.8652 119.443 33.6264 118.784 34.4262 117.861L36.3027 114.819L37.8103 115.825L33.8653 121.67L32.3579 120.82L32.8784 119.893C32.1367 120.264 31.2976 120.146 30.5659 119.657C29.1565 118.716 29.1058 117.453 30.081 116.008L32.6658 112.365ZM37.0885 124.169L36.081 125.641L34.6295 124.78L35.2883 123.308L37.0885 124.169ZM39.2125 116.442L40.6295 117.304L37.2542 123.491L35.6586 122.629L39.2125 116.442ZM47.6879 123.606C48.0113 122.441 47.4535 121.679 46.6397 121.305C46.1097 121.109 45.5229 121.101 44.962 121.55L43.2114 121.058C43.9359 120.053 45.306 119.318 47.1184 119.989C49.2513 120.778 49.9047 122.821 49.1936 124.722C48.4595 126.684 46.545 127.636 44.5846 126.911C42.538 126.153 41.8599 124.101 42.7933 121.794L47.6879 123.606ZM45.0603 125.677C45.7014 125.914 46.7304 125.827 47.2274 124.762L44.0835 123.598C43.7029 124.728 44.3454 125.479 45.0603 125.677ZM49.4249 127.067L50.852 127.432L51.7621 123.909C52.0477 123.212 51.7363 123.011 51.1117 122.851L50.5766 122.714L50.9008 121.46L52.3491 121.788C53.7675 122.192 53.9364 122.749 53.5859 124.105L52.6103 127.881L53.5788 128.129L53.2676 129.333L52.2993 129.085L51.8214 130.935L50.0631 130.486L50.541 128.636L49.114 128.374L49.4249 127.067ZM85.2161 130.763L83.4618 131.227L83.0545 129.609L84.7831 129.145L85.2161 130.763ZM84.5954 122.417L84.072 122.593L83.6537 121.418L84.9121 120.942C86.4573 120.525 86.9043 120.795 87.3566 122.121L88.6162 125.814L89.5632 125.495L90.1777 126.672L89.1252 126.991L89.6347 128.801L87.9152 129.381L87.298 127.571L85.9607 128.226L85.501 126.865L86.8967 126.394L85.7215 122.949C85.4892 122.267 85.2058 122.211 84.5954 122.417ZM90.4339 124.641C91.2553 124.288 91.6684 123.894 91.1419 122.542L89.6723 119.154L91.339 118.439L94.1428 124.901L92.5005 125.606L92.0104 124.477C91.9853 125.443 91.5411 126.004 90.7802 126.331C90.6716 126.563 90.5214 126.427 90.4076 126.462L89.7902 124.9C89.9871 124.833 90.1925 124.745 90.4339 124.641ZM92.3398 118.151L93.8422 117.225C93.9505 117.393 94.1223 117.642 94.3313 117.931C94.4157 117.042 94.9023 116.408 95.8301 115.887C97.0103 115.224 98.4409 115.323 99.2814 116.439C99.8959 117.886 98.5148 119.355 96.2413 120.87L96.2996 120.973C96.8364 121.918 97.5394 121.96 98.1809 121.67C98.7882 121.258 99.1176 120.854 98.7641 119.964L100.242 119.135C100.802 120.454 100.321 122.027 98.7282 122.75C97.2732 123.567 95.7533 123.604 94.5375 121.541C94.4339 121.359 93.9847 120.514 93.6742 119.967C93.1246 119.155 92.7567 118.484 92.3398 118.151ZM95.3677 119.437L95.6263 119.893C97.2988 118.714 97.8812 118.116 97.493 117.432C97.2409 116.988 96.6902 116.817 95.9684 117.222C94.9716 117.781 94.8568 118.537 95.3677 119.437ZM101.166 112.515C101.574 112.074 102.52 111.797 103.245 112.148L101.32 109.61L102.77 108.599L108.417 115.972L107.163 117.058L106.421 116.338C106.52 117.285 106.148 117.869 105.434 118.405C104.068 119.429 102.089 119.078 100.751 117.312C99.3881 115.515 99.641 113.645 101.166 112.515ZM102.266 116.16C103.097 117.257 104.195 117.597 104.952 117.029C105.821 116.431 105.744 115.337 104.889 114.209C104.01 113.186 102.97 112.764 102.264 113.362C101.415 113.93 101.434 115.063 102.266 116.16ZM108.412 106.28L109.072 106.881C108.801 106.013 109.166 105.21 109.663 104.67C110.801 103.435 112.81 103.384 114.479 104.905C116.118 106.398 116.341 108.392 115.125 109.646C114.521 110.302 113.714 110.597 112.962 110.505L115.445 112.689L114.219 114.02L107.304 107.612L108.412 106.28ZM110.977 108.706C112.025 109.661 113.119 109.771 113.795 109.037C114.435 108.343 114.199 107.223 113.327 106.295C112.162 105.367 111.191 105.24 110.39 105.935C109.714 106.668 109.9 107.725 110.977 108.706ZM113.388 100.393L116.725 102.702C117.494 103.217 118.242 103.512 118.827 102.674C119.511 101.696 118.862 100.929 117.944 100.294L114.92 98.2019L115.957 96.7195L121.767 100.739L120.73 102.221L119.964 101.691C120.325 102.435 120.192 103.267 119.688 103.986C118.719 105.372 117.449 105.402 116.012 104.408L112.351 102.083L113.388 100.393ZM118.699 96.6993C117.706 96.189 117.114 95.9589 116.602 95.8167L117.288 94.34C117.511 94.3954 117.792 94.5103 118.126 94.6376C117.707 93.848 117.764 93.0763 118.253 92.2222C118.875 90.9518 120.126 90.3975 121.272 90.8038C122.756 91.5663 122.343 93.4455 121.344 96.0546L121.449 96.1088C122.419 96.607 123.03 96.258 123.368 95.6068C123.688 94.9907 123.638 94.3169 122.955 93.9218L123.734 92.4218C125.1 93.1862 125.299 94.6545 124.46 96.2706C123.734 97.7472 122.405 98.632 120.289 97.5453C120.197 97.4492 119.26 96.9876 118.699 96.6993ZM120.496 92.497C120.04 92.2629 119.485 92.4194 119.105 93.1519C118.58 94.1635 118.9 94.8584 119.823 95.3328L120.291 95.5728C121.04 93.6746 121.198 92.8572 120.496 92.497ZM121.527 84.7016L122.384 84.9602C121.762 84.2939 121.743 83.4127 121.957 82.7116C122.446 81.1091 124.237 80.2003 126.402 80.8547C128.529 81.4976 129.541 83.2257 129.044 84.8534C128.784 85.7049 128.184 86.3167 127.431 86.4859L130.654 87.4599L130.126 89.1875L121 86.4295L121.527 84.7016ZM124.983 85.7876C126.254 86.1985 127.396 85.8274 127.58 84.8758C127.855 83.9744 127.156 83.1343 125.834 82.6664C124.513 82.2667 123.437 82.639 123.161 83.5982C122.87 84.5498 123.497 85.3654 124.983 85.7876ZM129.153 78.4545C129.945 79.0376 130.329 79.6938 130.013 80.5041C129.992 80.6199 129.95 80.7717 129.98 80.8852L128.281 80.5733C128.321 80.3233 128.362 80.1046 128.41 79.8472C128.574 78.9727 128.36 78.3339 127.198 78.0917L123.407 77.4149L123.74 75.6402L130.697 76.931L130.369 78.6801L129.153 78.4545ZM127.471 75.0428C125.005 74.8518 123.922 73.009 124.061 71.2347C124.2 69.4602 125.556 67.8065 128.023 67.9975C130.502 68.1898 131.609 70.0326 131.446 71.8068C131.307 73.5811 129.95 75.235 127.471 75.0428ZM127.88 69.8242C126.397 69.7093 125.555 70.3528 125.477 71.3444C125.4 72.3359 126.132 73.1015 127.614 73.2162C129.096 73.3311 129.951 72.6885 130.029 71.6972C130.107 70.8705 129.362 69.9391 127.88 69.8242ZM129.155 67.01L129.068 65.285C129.744 65.1073 130.199 64.4557 130.315 63.7631C130.117 62.8222 129.277 62.1171 127.806 62.1903C126.44 62.2641 125.529 63.0111 125.579 64.0041C125.681 64.6315 125.971 65.2555 126.824 65.5391L126.911 67.187C124.959 66.8649 124.242 65.4463 124.263 63.9827C124.062 61.8787 125.545 60.4556 127.687 60.349C129.842 60.4408 131.464 61.5892 131.57 63.6932C131.644 65.1698 130.89 66.6748 129.155 67.01ZM122.445 51.2766L129.116 49.4759L129.58 51.2219L122.782 53.0225L122.445 51.2766ZM130.697 55.6188C130.949 57.0624 130.513 58.5452 128.949 59.0674L128.659 57.4045C129.217 57.162 129.542 56.5749 129.398 55.7499C129.284 55.0925 129.004 54.6707 128.529 54.7447C128.153 54.8094 127.915 55.1294 127.887 55.8115L127.842 56.7752C127.913 58.2083 127.626 59.4416 126.187 59.6898C124.787 59.9315 123.682 58.6482 123.408 57.0754C123.111 55.374 123.768 53.9328 125.333 53.4903L125.632 55.2046C124.976 55.4239 124.551 55.9754 124.713 57.034C124.848 57.6769 125.216 58.1046 125.722 58.0173C126.24 57.9278 126.545 57.4837 126.379 56.7355L126.42 55.6661C126.465 54.3172 126.859 53.3596 128.129 53.1405C129.373 52.926 130.436 54.1233 130.697 55.6188Z" fill="white"/>
</svg>
